<?xml version="1.0" encoding="UTF-8"?>
<svg xmlns="http://www.w3.org/2000/svg" xmlns:xlink="http://www.w3.org/1999/xlink" width="18pt" height="24pt" viewBox="0 0 18 24" version="1.1">
<g id="surface1">
<path style=" stroke:none;fill-rule:nonzero;fill:rgb(90.196078%,63.921569%,16.078431%);fill-opacity:1;" d="M 18 4.703125 L 0 4.703125 L 1.6875 22.035156 L 9 24 L 16.308594 22.035156 Z M 18 4.703125 "/>
<path style=" stroke:none;fill-rule:nonzero;fill:rgb(94.509804%,74.901961%,13.333333%);fill-opacity:1;" d="M 9 6.113281 L 9 22.53125 L 14.921875 20.941406 L 16.363281 6.113281 Z M 9 6.113281 "/>
<path style=" stroke:none;fill-rule:nonzero;fill:rgb(100%,100%,100%);fill-opacity:1;" d="M 13.710938 8.242188 L 4.601562 8.242188 L 3.96875 14.730469 L 3.980469 14.691406 L 11.71875 14.691406 L 11.46875 17.4375 L 9 18.109375 L 6.492188 17.425781 L 6.34375 15.765625 L 4.070312 15.765625 L 4.394531 19.085938 L 9 20.324219 L 13.605469 19.085938 L 14.242188 12.566406 L 6.027344 12.566406 L 6.132812 10.394531 L 11.832031 10.394531 L 11.917969 11.640625 L 14.210938 11.640625 Z M 13.710938 8.242188 "/>
<path style=" stroke:none;fill-rule:nonzero;fill:rgb(92.156863%,92.156863%,92.156863%);fill-opacity:1;" d="M 9 8.242188 L 4.601562 8.242188 L 3.96875 14.730469 L 3.980469 14.691406 L 9 14.691406 L 9 12.574219 L 6.347656 12.574219 L 6.453125 10.402344 L 9 10.402344 Z M 6.347656 15.765625 L 4.070312 15.765625 L 4.394531 19.082031 L 9 20.320312 L 9 18.113281 L 6.492188 17.425781 Z M 6.347656 15.765625 "/>
<path style=" stroke:none;fill-rule:nonzero;fill:rgb(13.72549%,12.156863%,12.54902%);fill-opacity:1;" d="M 7.25 2.148438 L 5.644531 2.148438 L 5.644531 3.234375 L 8.394531 3.234375 L 8.394531 0 L 7.25 0 Z M 12.351562 0.015625 L 9.558594 0.015625 L 9.558594 1.148438 C 9.933594 1.503906 10.128906 1.671875 10.675781 2.183594 L 9.558594 2.183594 L 9.558594 3.21875 L 12.351562 3.21875 L 12.351562 2.1875 L 11.234375 1.152344 L 12.351562 1.152344 Z M 12.351562 0.015625 "/>
</g>
</svg>
